<svg width="37" height="37" viewBox="0 0 37 37" fill="none" xmlns="http://www.w3.org/2000/svg">
<path d="M19.709 0.0386947C8.55755 -0.67408 -0.67447 8.55743 0.0387384 19.7092C0.627744 28.9266 8.07354 36.3719 17.291 36.9613C28.4425 37.6741 37.6745 28.443 36.9613 17.2908C36.3718 8.07342 28.9265 0.628121 19.709 0.0386947ZM26.8765 27.6794C27.6042 25.1796 28.0383 22.3046 28.0967 19.2115H35.5592C35.3953 23.177 33.8728 26.7959 31.446 29.618C30.3324 28.8378 28.7758 28.178 26.8765 27.6794ZM5.55405 29.618C3.12718 26.7959 1.6043 23.177 1.44125 19.2115H8.90327C8.96132 22.3046 9.39581 25.1796 10.1235 27.6794C8.22335 28.1784 6.66718 28.8378 5.55405 29.618ZM10.1197 9.33294C9.39411 11.8298 8.96089 14.7005 8.90284 17.7885H1.44125C1.60387 13.8414 3.11266 10.2382 5.51948 7.42211C6.65182 8.18951 8.21908 8.83998 10.1197 9.33294ZM17.7883 17.7885H10.3263C10.3873 14.8435 10.8252 12.0641 11.5406 9.65988C13.4638 10.0474 15.5966 10.2685 17.7883 10.3082V17.7885ZM17.7883 19.2115V26.6918C15.5923 26.7315 13.4595 26.9556 11.5435 27.3487C10.8261 24.9423 10.3877 22.1595 10.3263 19.2115H17.7883ZM19.2113 19.2115H26.6737C26.6123 22.1595 26.1735 24.9423 25.4565 27.3487C23.5392 26.9556 21.4073 26.7315 19.2113 26.6918V19.2115ZM19.2113 17.7885V10.3082C21.403 10.2685 23.5358 10.0474 25.459 9.65945C26.1744 12.0641 26.6123 14.8435 26.6737 17.7885H19.2113ZM19.2113 8.88522V1.49498C21.5485 1.93843 23.6395 4.53387 25.0104 8.30006C23.2225 8.64876 21.2446 8.84723 19.2113 8.88522ZM17.7883 1.49498V8.88522C15.7549 8.84723 13.7775 8.64876 11.9891 8.30006C13.3605 4.53387 15.4515 1.93843 17.7883 1.49498ZM17.7883 28.1148V35.505C15.4528 35.062 13.3631 32.47 11.9921 28.708C13.7741 28.3542 15.7511 28.1532 17.7883 28.1148ZM19.2113 35.5046V28.1148C21.2481 28.1532 23.2246 28.3542 25.0074 28.708C23.6365 32.4695 21.5468 35.062 19.2113 35.5046ZM28.0967 17.7885C28.0387 14.7005 27.6059 11.8298 26.8803 9.33294C28.7809 8.83955 30.3486 8.18951 31.4805 7.42211C33.8873 10.2378 35.3961 13.8414 35.5587 17.7885H28.0967ZM30.4967 6.36063C29.5005 6.99188 28.1065 7.54887 26.4458 7.97483C25.5525 5.45024 24.3403 3.39599 22.9126 2.00416C25.8167 2.78181 28.4181 4.30681 30.4967 6.36063ZM10.5546 7.97526C8.89345 7.54887 7.49947 6.99231 6.50329 6.36105C8.58188 4.30681 11.1833 2.78224 14.0878 2.00459C12.6597 3.39599 11.4471 5.45066 10.5546 7.97526ZM6.53914 30.6735C7.51398 30.0333 8.89729 29.4686 10.5589 29.0371C11.4509 31.5557 12.6618 33.6057 14.0878 34.9958C11.2 34.2225 8.61218 32.7098 6.53914 30.6735ZM26.4411 29.0371C28.1023 29.4686 29.4856 30.0333 30.4604 30.6735C28.3878 32.7103 25.8005 34.2225 22.9122 34.9958C24.3382 33.6057 25.5482 31.5557 26.4411 29.0371Z" fill="#8C8C8C"/>
</svg>
