<svg width="246" height="223" viewBox="0 0 246 223" fill="none" xmlns="http://www.w3.org/2000/svg">
<mask id="mask0_107_614" style="mask-type:alpha" maskUnits="userSpaceOnUse" x="0" y="0" width="246" height="223">
<rect width="246" height="223" fill="#F2F2F2"/>
</mask>
<g mask="url(#mask0_107_614)">
<path opacity="0.2" d="M157.943 2.30224C70.8414 -3.26511 -1.26816 68.8404 4.30258 155.944C8.90319 227.94 67.0609 286.094 139.057 290.698C226.159 296.265 298.268 224.163 292.697 137.055C288.093 65.06 229.939 6.90614 157.943 2.30224ZM213.927 218.199C219.611 198.673 223.002 176.217 223.458 152.057H281.746C280.466 183.031 268.574 211.298 249.618 233.341C240.921 227.247 228.762 222.093 213.927 218.199ZM47.3816 233.341C28.4258 211.298 16.5309 183.031 15.2574 152.057H73.5417C73.9951 176.217 77.3889 198.673 83.073 218.199C68.231 222.096 56.0761 227.247 47.3816 233.341ZM83.043 74.8978C77.3756 94.4002 73.9918 116.823 73.5384 140.943H15.2574C16.5275 110.112 28.3124 81.9687 47.1116 59.9727C55.9561 65.9667 68.1977 71.0474 83.043 74.8978ZM142.941 140.943H84.6565C85.1333 117.94 88.5537 96.2305 94.1411 77.4515C109.163 80.4785 125.822 82.2054 142.941 82.5154V140.943ZM142.941 152.057V210.485C125.789 210.795 109.13 212.545 94.1645 215.615C88.5604 196.82 85.1366 175.084 84.6565 152.057H142.941ZM154.056 152.057H212.343C211.863 175.084 208.436 196.82 202.836 215.615C187.86 212.545 171.208 210.795 154.056 210.485V152.057ZM154.056 140.943V82.5154C171.175 82.2054 187.834 80.4785 202.856 77.4482C208.443 96.2305 211.863 117.94 212.343 140.943H154.056ZM154.056 71.4007V13.677C172.311 17.1407 188.644 37.4132 199.352 66.8302C185.387 69.5539 169.938 71.104 154.056 71.4007ZM142.941 13.677V71.4007C127.059 71.104 111.613 69.5539 97.6449 66.8302C108.356 37.4132 124.689 17.1407 142.941 13.677ZM142.941 221.599V279.323C124.699 275.863 108.376 255.617 97.6683 226.233C111.587 223.469 127.029 221.899 142.941 221.599ZM154.056 279.32V221.599C169.965 221.899 185.403 223.469 199.328 226.233C188.62 255.613 172.298 275.863 154.056 279.32ZM223.458 140.943C223.005 116.823 219.624 94.4002 213.957 74.8978C228.802 71.044 241.047 65.9667 249.888 59.9727C268.688 81.9654 280.472 110.112 281.743 140.943H223.458ZM242.204 51.6817C234.423 56.6123 223.535 60.9628 210.563 64.2899C203.586 44.5708 194.118 28.5255 182.966 17.6541C205.649 23.7282 225.969 35.6397 242.204 51.6817ZM86.4401 64.2932C73.4651 60.9628 62.577 56.6156 54.7959 51.685C71.0314 35.6397 91.3508 23.7315 114.037 17.6575C102.882 28.5255 93.411 44.5741 86.4401 64.2932ZM55.076 241.585C62.6903 236.584 73.4951 232.174 86.4735 228.803C93.441 248.476 102.899 264.488 114.037 275.346C91.4808 269.305 71.2681 257.49 55.076 241.585ZM210.527 228.803C223.502 232.174 234.306 236.584 241.921 241.585C225.732 257.494 205.523 269.305 182.963 275.346C194.101 264.488 203.552 248.476 210.527 228.803Z" fill="#D9D9D9"/>
</g>
</svg>
