<svg width="35" height="35" viewBox="0 0 35 35" fill="none" xmlns="http://www.w3.org/2000/svg">
<g clip-path="url(#clip0_107_2774)">
<path d="M10.0149 7.21646C10.0146 7.98198 9.71008 8.716 9.16851 9.25703C8.62693 9.79807 7.89261 10.1018 7.12709 10.1014C6.36157 10.101 5.62755 9.79657 5.08651 9.25499C4.54548 8.71342 4.24174 7.9791 4.24213 7.21357C4.24251 6.44805 4.54698 5.71404 5.08856 5.173C5.63013 4.63197 6.36445 4.32823 7.12997 4.32861C7.8955 4.329 8.62951 4.63347 9.17055 5.17504C9.71158 5.71662 10.0153 6.45094 10.0149 7.21646ZM10.1015 12.2388H4.32872V30.3077H10.1015V12.2388ZM19.2226 12.2388H13.4786V30.3077H19.1648V20.8259C19.1648 15.5437 26.0489 15.053 26.0489 20.8259V30.3077H31.7496V18.8631C31.7496 9.95854 21.5606 10.2905 19.1648 14.6634L19.2226 12.2388Z" fill="white"/>
</g>
<defs>
<clipPath id="clip0_107_2774">
<rect width="34.6369" height="34.6369" fill="white"/>
</clipPath>
</defs>
</svg>
