<svg width="97" height="109" viewBox="0 0 97 109" fill="none" xmlns="http://www.w3.org/2000/svg">
<g clip-path="url(#clip0_107_1348)">
<path d="M90.2085 10.954C89.7028 11.8038 89.628 12.9288 89.5173 13.8863C89.257 16.1004 89.2031 18.3385 89.1104 20.5617C88.9249 25.0648 88.494 29.4931 86.5551 33.6222C84.9633 37.0153 82.2674 39.8668 78.638 41.0098C74.6764 42.2575 70.9183 40.6148 67.268 39.1906C63.2436 37.6197 59.2012 36.1237 54.9105 35.4863C50.7275 34.864 46.5595 35.3846 42.4035 35.9441C38.4359 36.4797 34.4235 37.0153 30.432 36.4019C27.027 35.7766 24.5136 33.8377 23.3198 30.5613C22.2755 27.6889 22.3833 24.4574 22.7274 21.4713C23.1881 17.4918 23.9092 13.1382 25.9319 9.6255C27.1647 7.48614 29.0138 4.99071 28.7505 2.38159C28.6069 0.969314 27.3382 -0.206587 25.911 0.0297899C24.4329 0.275143 23.3437 2.01955 22.6166 3.15954C20.2349 6.89669 18.7867 11.2771 17.3505 15.4422C14.8581 22.6711 12.1951 29.7564 10.4358 37.2188C8.26647 46.4195 7.35387 55.8776 6.47419 65.2698C6.06427 69.6473 5.92364 74.1684 4.97814 78.471C4.20617 81.9898 2.98838 85.4038 2.04586 88.8776C0.546816 94.41 -0.904359 102.468 4.40963 106.567C9.14914 110.223 15.3727 106.079 19.454 103.344C25.8332 99.0658 32.3919 95.4363 40.0427 94.0001C44.3663 93.1892 48.8365 93.2999 53.0764 94.4878C55.9129 95.2807 58.6267 96.5943 61.3705 97.6535C65.8706 99.3889 70.9303 101.151 75.7985 100.056C81.4865 98.7755 84.2213 93.0426 85.6186 87.9171C86.7705 83.6982 86.8364 79.24 87.0129 74.9015C87.2074 70.147 87.8268 65.7157 89.1582 61.1497C91.6417 52.6401 93.5477 43.9839 95.2083 35.2799C96.3842 29.1221 97.2878 22.7429 95.2532 16.6899C94.8971 15.6307 92.1204 7.73448 90.2055 10.954H90.2085ZM95.0946 30.5673C94.547 34.5797 93.6344 38.5323 92.8266 42.4998C91.899 47.0568 90.8578 51.5809 89.6519 56.0721C88.5 60.3658 87.0368 64.5457 86.5162 68.9771C85.9896 73.4622 86.1183 77.9953 85.6694 82.4865C85.0411 88.7729 82.7462 97.1987 75.8284 99.1286C70.8435 100.52 65.2692 98.225 60.6883 96.4327C57.78 95.2957 54.9195 93.9762 51.8675 93.2521C48.0765 92.3514 44.121 92.4442 40.297 93.0546C32.8616 94.2395 26.0606 97.7522 19.9118 101.956C15.2351 105.155 7.59923 110.445 3.28161 103.949C-0.802627 97.8031 2.92854 89.0182 4.77766 82.7288C7.14742 74.6651 7.23419 66.1016 8.10789 57.7836C9.12221 48.146 10.6871 38.646 13.4817 29.3555C15.2052 23.6256 17.3176 17.9974 19.3882 12.3842C20.7047 8.80566 22.117 4.52394 24.8338 1.72931C26.0007 0.529473 27.6853 0.703015 27.8828 2.66285C28.1281 5.08048 26.0037 7.66267 24.8847 9.65542C23.3198 12.4441 22.6944 15.8281 22.1858 18.9459C21.734 21.7106 21.4467 24.4993 21.713 27.2969C22.1918 32.3626 25.0343 36.3241 30.1927 37.2726C34.3547 37.9099 38.5018 37.3744 42.6399 36.8148C47.3854 36.1745 51.9872 35.7736 56.7267 36.7131C60.9695 37.5569 64.991 39.2744 69.0064 40.8303C72.2588 42.0899 75.4304 42.835 78.8744 41.8775C85.8998 39.9266 88.889 32.0394 89.6699 25.5226C90.1696 21.3426 89.8734 17.0848 90.5466 12.9258C90.6094 12.5308 90.8398 10.7864 91.513 11.2113C92.2282 11.6631 92.671 12.7882 93.0241 13.5093C93.9636 15.4332 94.6727 17.5277 95.1844 19.6072C96.0461 23.111 95.5733 27.0426 95.0916 30.5673H95.0946Z" fill="#020202"/>
<path d="M60.3116 63.9864C60.6197 68.2292 59.1027 71.9663 55.6798 74.5485C52.8582 76.6789 49.2916 77.7291 45.8088 78.2378C46.5269 77.4629 47.239 76.6849 47.8494 75.8202C48.1845 75.3474 47.4066 74.8986 47.0744 75.3684C46.2396 76.5503 45.1954 77.5526 44.2379 78.6268C44.0045 78.8901 44.1093 79.2611 44.4354 79.3778C45.5993 79.7907 46.9099 80.1827 47.6908 81.206C48.0379 81.6608 48.8188 81.212 48.4658 80.7542C47.8584 79.9583 47.0505 79.4676 46.1738 79.0846C49.8481 78.5191 53.5733 77.3701 56.5026 75.0452C59.9615 72.2985 61.5234 68.3698 61.2062 63.9894C61.1643 63.4149 60.2667 63.4119 60.3086 63.9894L60.3116 63.9864Z" fill="#020202"/>
<path d="M40.4021 78.5939C35.869 78.2408 32.4131 75.6107 31.0696 71.2482C29.9656 67.6607 30.4443 63.6183 31.9134 60.1714C32.2156 61.1768 32.6555 62.1043 33.1133 63.0468C33.3646 63.5675 34.1396 63.1127 33.8882 62.595C33.5052 61.8051 33.1192 61.0332 32.8559 60.1924C32.7781 59.944 32.7063 59.6927 32.6345 59.4384C32.5956 59.2977 32.5627 59.1571 32.5298 59.0165C32.5208 58.9746 32.5208 58.9058 32.5208 58.8429C32.5388 58.7621 32.5358 58.6843 32.5118 58.6125C32.6525 58.2505 32.1827 57.9273 31.8476 58.0979C30.4443 58.801 29.1667 59.8184 27.9549 60.8087C27.506 61.1738 28.1464 61.8051 28.5892 61.4431C29.424 60.7609 30.3096 60.0607 31.2432 59.4743C29.5287 63.3102 29.053 67.7415 30.2977 71.7808C31.7249 76.4126 35.6745 79.1205 40.4021 79.4885C40.9795 79.5334 40.9765 78.6358 40.4021 78.5909V78.5939Z" fill="#020202"/>
<path d="M61.2748 54.5732C60.9905 55.2973 60.9038 56.0513 60.7811 56.8143C60.7003 57.323 60.5866 57.8257 60.4699 58.3283C58.8332 53.6816 54.9255 50.4022 49.8838 49.8397C44.6746 49.2563 39.3456 51.0635 35.399 54.4745C34.9592 54.8545 35.5995 55.4858 36.0333 55.1088C43.2623 48.8643 56.3229 48.6339 59.689 58.819C59.5065 58.7323 59.318 58.6515 59.1294 58.5677C58.2468 58.1728 57.4269 57.6402 56.5473 57.2302C56.0266 56.9879 55.5688 57.7598 56.0954 58.0052C56.8943 58.3762 57.6663 58.8011 58.4383 59.223C59.0666 59.5671 59.7578 59.7227 60.2395 60.2912C60.452 60.5425 60.9277 60.4109 60.9905 60.0937C61.1701 59.1841 61.3855 58.2805 61.583 57.3739C61.7715 56.5121 61.8134 55.6444 62.1395 54.8156C62.352 54.277 61.4813 54.0436 61.2748 54.5762V54.5732Z" fill="#020202"/>
</g>
<defs>
<clipPath id="clip0_107_1348">
<rect width="95.7985" height="108.012" fill="white" transform="translate(0.663391)"/>
</clipPath>
</defs>
</svg>
