<svg width="35" height="35" viewBox="0 0 35 35" fill="none" xmlns="http://www.w3.org/2000/svg">
<g clip-path="url(#clip0_107_2775)">
<path d="M17.3193 2.88672C21.2405 2.88672 21.7297 2.90115 23.2682 2.97331C24.8052 3.04547 25.8515 3.28649 26.7723 3.6444C27.7248 4.01097 28.5272 4.50743 29.3296 5.30841C30.0635 6.02986 30.6313 6.90256 30.9936 7.86577C31.3501 8.78509 31.5926 9.83285 31.6647 11.3699C31.7326 12.9083 31.7513 13.3976 31.7513 17.3187C31.7513 21.2399 31.7369 21.7292 31.6647 23.2676C31.5926 24.8046 31.3501 25.851 30.9936 26.7717C30.6324 27.7355 30.0644 28.6084 29.3296 29.3291C28.608 30.0627 27.7353 30.6305 26.7723 30.9931C25.8529 31.3496 24.8052 31.592 23.2682 31.6642C21.7297 31.732 21.2405 31.7508 17.3193 31.7508C13.3981 31.7508 12.9089 31.7363 11.3704 31.6642C9.8334 31.592 8.78708 31.3496 7.86632 30.9931C6.90273 30.6315 6.02988 30.0636 5.30896 29.3291C4.57496 28.6077 4.00709 27.735 3.64495 26.7717C3.28704 25.8524 3.04602 24.8046 2.97386 23.2676C2.90603 21.7292 2.88727 21.2399 2.88727 17.3187C2.88727 13.3976 2.9017 12.9083 2.97386 11.3699C3.04602 9.83141 3.28704 8.78653 3.64495 7.86577C4.00609 6.90197 4.57409 6.02903 5.30896 5.30841C6.03009 4.57416 6.90287 4.00625 7.86632 3.6444C8.78708 3.28649 9.83196 3.04547 11.3704 2.97331C12.9089 2.90548 13.3981 2.88672 17.3193 2.88672ZM17.3193 10.1027C15.4055 10.1027 13.5701 10.863 12.2168 12.2163C10.8635 13.5695 10.1033 15.4049 10.1033 17.3187C10.1033 19.2325 10.8635 21.068 12.2168 22.4212C13.5701 23.7745 15.4055 24.5348 17.3193 24.5348C19.2331 24.5348 21.0685 23.7745 22.4218 22.4212C23.775 21.068 24.5353 19.2325 24.5353 17.3187C24.5353 15.4049 23.775 13.5695 22.4218 12.2163C21.0685 10.863 19.2331 10.1027 17.3193 10.1027ZM26.7001 9.74193C26.7001 9.26348 26.51 8.80462 26.1717 8.46631C25.8334 8.12799 25.3746 7.93793 24.8961 7.93793C24.4177 7.93793 23.9588 8.12799 23.6205 8.46631C23.2822 8.80462 23.0921 9.26348 23.0921 9.74193C23.0921 10.2204 23.2822 10.6792 23.6205 11.0176C23.9588 11.3559 24.4177 11.5459 24.8961 11.5459C25.3746 11.5459 25.8334 11.3559 26.1717 11.0176C26.51 10.6792 26.7001 10.2204 26.7001 9.74193ZM17.3193 12.9891C18.4676 12.9891 19.5688 13.4453 20.3808 14.2572C21.1927 15.0692 21.6489 16.1705 21.6489 17.3187C21.6489 18.467 21.1927 19.5683 20.3808 20.3802C19.5688 21.1922 18.4676 21.6483 17.3193 21.6483C16.171 21.6483 15.0698 21.1922 14.2578 20.3802C13.4458 19.5683 12.9897 18.467 12.9897 17.3187C12.9897 16.1705 13.4458 15.0692 14.2578 14.2572C15.0698 13.4453 16.171 12.9891 17.3193 12.9891Z" fill="white"/>
</g>
<defs>
<clipPath id="clip0_107_2775">
<rect width="34.6369" height="34.6369" fill="white"/>
</clipPath>
</defs>
</svg>
