<svg width="280" height="113" viewBox="0 0 280 113" fill="none" xmlns="http://www.w3.org/2000/svg">
<path d="M83.4584 35.5952C83.4584 35.5952 84.849 44.9172 85.6602 50.9927C86.4714 57.0682 89.0441 60.6625 89.0441 60.6625C89.0441 60.6625 90.8055 58.1581 92.9146 53.6826C95.0005 49.2071 93.494 44.6853 93.494 44.6853L93.6794 44.9636C93.494 44.523 93.3086 44.1519 93.1464 43.8737C91.8716 41.7867 83.4584 35.6184 83.4584 35.6184V35.5952Z" fill="#878787"/>
<g style="mix-blend-mode:multiply" opacity="0.4">
<path d="M89.3685 40.1866C86.6337 37.9141 83.4584 35.5952 83.4584 35.5952C83.4584 35.5952 84.849 44.9172 85.6602 50.9927C86.1933 54.9812 87.468 57.8798 88.3024 59.4103C87.8852 52.9406 88.4183 46.5404 89.3685 40.1866Z" fill="#D9D9D9"/>
</g>
<path d="M163.302 42.5981L168.842 40.9517L165.875 37.3342L167.335 33.4153L161.703 30.4471L162.329 27.0847L157.902 23.9774V20.9628L152.317 17.183L152.201 12.9626L146.406 9.57704L147.241 6.00594L142.35 4.08126L141.4 0L137.043 2.3189C138.758 9.85531 149.651 21.2179 154.31 26.9456C158.945 32.6732 163.325 42.5981 163.325 42.5981H163.302Z" fill="#878787"/>
<path d="M56.8743 24.6033L55.9472 29.5658L60.0495 34.2499L58.6589 37.1717L63.2016 41.4849L61.6024 44.3835L64.0823 49.3691C64.0823 49.3691 61.8342 53.033 62.4136 53.2881C62.993 53.52 65.1948 56.8824 65.1948 56.8824L65.1021 61.2883L69.2507 59.1549C69.2507 59.1549 68.7409 48.488 66.8404 43.9429C64.9167 39.3979 55.6228 21.9366 56.8743 14.9799C56.8975 14.8408 56.9207 14.7248 56.9438 14.6089L50.941 16.8118L56.8511 24.6265L56.8743 24.6033Z" fill="#878787"/>
<path d="M66.8633 43.943C68.7638 48.4881 69.2737 59.155 69.2737 59.155L70.3862 60.4304L78.6371 59.9666L89.0204 60.6391C89.0204 60.6391 86.4477 57.068 85.6365 50.9693C84.8253 44.8938 83.4347 35.5718 83.4347 35.5718C83.4347 35.5718 91.8711 41.7401 93.1226 43.8271C93.2849 44.1053 93.4703 44.4764 93.6557 44.917L102.834 57.9028C102.834 57.9028 110.181 56.1636 113.843 55.2129C117.528 54.2389 132.57 54.2157 132.57 54.2157L147.009 45.1257L160.567 43.4097L163.209 42.5981C163.209 42.5981 158.829 32.65 154.194 26.9223C149.558 21.1947 138.642 9.83207 136.927 2.29565L121.004 6.28415L93.6789 3.71018L69.5286 13.9829L57.8707 14.238L56.8741 14.609C56.8741 14.7249 56.8277 14.8409 56.8045 14.98C55.553 21.9367 64.8469 39.398 66.7706 43.943H66.8633Z" fill="white"/>
<path d="M66.8633 43.943C68.7638 48.4881 69.2737 59.155 69.2737 59.155L70.3862 60.4304L78.6371 59.9666L89.0204 60.6391C89.0204 60.6391 86.4477 57.068 85.6365 50.9693C84.8253 44.8938 83.4347 35.5718 83.4347 35.5718C83.4347 35.5718 91.8711 41.7401 93.1226 43.8271C93.2849 44.1053 93.4703 44.4764 93.6557 44.917L102.834 57.9028C102.834 57.9028 110.181 56.1636 113.843 55.2129C117.528 54.2389 132.57 54.2157 132.57 54.2157L147.009 45.1257L160.567 43.4097L163.209 42.5981C163.209 42.5981 158.829 32.65 154.194 26.9223C149.558 21.1947 138.642 9.83207 136.927 2.29565L121.004 6.28415L93.6789 3.71018L69.5286 13.9829L57.8707 14.238L56.8741 14.609C56.8741 14.7249 56.8277 14.8409 56.8045 14.98C55.553 21.9367 64.8469 39.398 66.7706 43.943H66.8633ZM64.8701 19.0381C65.2641 19.2004 73.5382 19.4787 75.4851 20.2671C77.4319 21.0555 87.004 19.9425 87.1662 19.5482C87.3284 19.154 98.2679 17.4612 98.5229 17.8786C98.7546 18.296 97.1554 22.3309 97.1554 22.3309C97.1554 22.3309 86.3087 26.7136 86.7027 26.7368C87.0967 26.76 99.9135 25.1832 107.006 25.3919C114.075 25.5774 138.225 35.0616 138.225 35.0616L127.842 27.9658L106.542 22.1686C106.542 22.1686 106.82 17.9018 107.492 17.6699C108.164 17.438 116.276 12.2205 118.13 12.6147C119.985 13.009 125.57 11.2234 125.987 11.1075C126.405 10.9915 136.626 5.91313 136.741 6.1914C136.857 6.46967 141.261 16.9279 141.261 16.9279L148.029 30.2152L139.917 43.8735L150.671 34.8066L153.915 34.2037L156.604 40.0009L147.843 43.1778L137.159 49.0446L130.623 52.778L103.738 54.6331C103.738 54.6331 101.953 53.3114 101.86 52.6389C101.768 51.9664 98.7083 43.4561 99.1023 43.4792C99.4963 43.5024 86.9808 36.4066 86.9808 36.4066C86.9808 36.4066 81.4647 30.563 81.7196 30.9804C81.9514 31.3978 82.3918 39.1893 82.2759 42.9227C82.16 46.6561 85.2425 56.7665 85.2425 56.7665L78.6603 57.1375C78.6603 57.1375 79.3324 50.7606 78.9384 50.7374C78.5444 50.7142 70.6875 58.2274 70.6875 58.2274L71.6145 52.2679L67.744 37.682L68.2771 29.4267C68.2771 29.4267 64.4066 18.8758 64.8006 19.0149L64.8701 19.0381Z" fill="#D9D9D9"/>
<g style="mix-blend-mode:screen">
<path d="M111.41 52.3612C116.856 52.3612 122.117 52.1293 127.541 51.6423C131.689 51.2713 134.98 47.7002 138.179 45.3581C138.272 45.2885 138.295 45.103 138.132 45.1726C134.447 46.3552 131.759 49.9959 127.796 50.3437C122.372 50.8075 116.972 51.5495 111.549 51.9901C111.386 51.9901 111.201 52.3843 111.433 52.3843L111.41 52.3612Z" fill="#D9D9D9"/>
</g>
<g style="mix-blend-mode:screen">
<path d="M138.295 20.7547C139.407 23.9316 142.953 26.6215 145.178 29.01C145.225 29.0563 145.317 28.9868 145.294 28.9172C144.019 25.9954 142.374 24.0012 140.612 21.3576C138.48 18.1575 137.252 14.3777 136.209 10.7139C136.162 10.5747 135.931 10.7139 135.954 10.853C136.556 14.169 137.205 17.5778 138.318 20.7547H138.295Z" fill="#D9D9D9"/>
</g>
<g style="mix-blend-mode:screen">
<path d="M86.5409 30.3781C87.5143 29.5897 89.6234 29.7752 90.8054 29.636C92.5668 29.4042 94.3283 29.0795 96.1129 28.894C100.099 28.4534 104.016 27.9664 108.049 27.8969C108.258 27.8969 108.489 27.4795 108.188 27.4331C103.831 26.7838 99.7517 26.6679 95.3712 27.2476C92.845 27.5722 88.2328 28.3143 86.4945 30.3781C86.4713 30.4245 86.4945 30.4245 86.5409 30.4013V30.3781Z" fill="#D9D9D9"/>
</g>
<g style="mix-blend-mode:screen">
<path d="M72.2408 55.4451C74.2803 53.2886 76.8298 51.2711 77.8727 48.3957C78.035 47.9783 77.5714 47.8392 77.2933 48.1174C75.2074 50.1581 73.5387 52.848 72.2176 55.4451C72.2176 55.4683 72.2176 55.4915 72.2639 55.4451H72.2408Z" fill="#D9D9D9"/>
</g>
<g style="mix-blend-mode:screen">
<path d="M146.986 16.1862C152.687 23.6994 158.134 30.7953 162.259 39.3288C162.259 39.3752 162.352 39.3288 162.329 39.2824C160.799 35.3403 159.27 31.4446 156.906 27.9198C154.055 23.6994 150.393 19.9428 147.102 16.0471C147.055 15.9775 146.916 16.0935 146.986 16.163V16.1862Z" fill="#D9D9D9"/>
</g>
<g style="mix-blend-mode:screen">
<path d="M151.668 17.1606C151.668 17.1606 151.76 17.1606 151.76 17.1374C151.899 16.0475 151.969 14.8881 151.668 13.8214C151.621 13.6359 151.366 13.8446 151.366 13.9605C151.366 15.0272 151.668 16.0707 151.668 17.1374V17.1606Z" fill="#D9D9D9"/>
</g>
<path d="M115.419 45.0324C115.419 45.0324 138.643 32.6031 139.848 32.8118C141.053 33.0205 151.876 34.4118 151.876 34.4118L162.283 28.1972L174.706 27.2001L182.122 21.797L213.573 12.3823L217.374 23.6058C217.374 23.6058 240.412 60.6849 240.597 61.2878C240.806 61.8907 241.803 70.9112 241.803 70.9112L251.606 80.9289L233.389 83.9434L215.172 87.7464L205.16 96.3727C205.16 96.3727 174.914 99.7815 165.504 102.193C156.095 104.605 142.073 109.799 142.073 109.799C142.073 109.799 135.073 94.9582 134.471 94.564C133.868 94.1698 129.858 91.5494 129.07 90.761C128.259 89.9494 115.442 45.0788 115.442 45.0788L115.419 45.0324Z" fill="#D9D9D9"/>
<g style="mix-blend-mode:multiply" opacity="0.6">
<path d="M241.802 70.8885C241.802 70.8885 240.806 61.868 240.597 61.2651C240.389 60.6622 217.374 23.5831 217.374 23.5831L213.573 12.3596L182.122 21.7743L174.705 27.1774L162.283 28.1745L151.876 34.3891C151.876 34.3891 141.053 32.9978 139.848 32.7891C138.642 32.5804 115.419 45.0097 115.419 45.0097C115.419 45.0097 128.236 89.9035 129.047 90.6919C129.858 91.5035 133.845 94.1007 134.447 94.4949C135.05 94.8891 142.049 109.73 142.049 109.73C142.049 109.73 156.071 104.513 165.481 102.124C174.891 99.7124 205.137 96.3036 205.137 96.3036L215.149 87.6774L233.366 83.8744L251.583 80.8598L241.779 70.8422L241.802 70.8885ZM187.128 22.7251L211.696 14.98L211.974 20.3134L190.072 24.0469L181.265 27.2469L187.151 22.7019L187.128 22.7251ZM164.971 30.7485H180.453L170.835 34.2268L160.429 34.5051L164.971 30.7717V30.7485ZM221.847 76.1756C220.248 76.4307 209.03 81.5091 208.219 81.254C207.408 80.9757 188.449 82.3207 188.449 82.3207L206.064 84.9874L196.978 92.4775C196.978 92.4775 165.203 95.1442 165.203 94.0775C165.203 93.0108 165.203 91.4108 164.392 91.6658C163.581 91.9441 151.297 98.0892 151.297 98.0892C151.297 98.0892 152.896 92.1992 153.707 91.6658C154.518 91.1325 168.934 75.364 168.123 75.8974C167.312 76.4307 147.287 86.8426 147.287 86.8426L136.603 88.7208L138.735 80.6975L147.009 76.4307L173.709 61.7289L129.372 40.882L142.721 34.737L158.204 38.7486L161.402 44.0821L164.345 45.4271L173.964 52.1055L171.553 57.7172L176.351 62.7956L175.818 67.5957L181.96 70.7958L182.493 73.7408L188.102 77.2191V80.4192L193.432 79.8859L207.06 75.3408L215.613 76.4075C215.613 76.4075 223.354 75.8742 221.754 76.1293L221.847 76.1756Z" fill="#D9D9D9"/>
</g>
<g style="mix-blend-mode:screen">
<path d="M132.361 40.4876L143.185 35.8035L157.601 39.676L143.185 37.0093L132.361 40.4876Z" fill="#D9D9D9"/>
</g>
<g style="mix-blend-mode:screen">
<path d="M138.504 86.7033C138.643 86.8425 140.103 81.2307 140.103 81.2307L173.616 63.3289L141.841 82.6916L138.504 86.7033Z" fill="#D9D9D9"/>
</g>
<g style="mix-blend-mode:screen">
<path d="M152.919 96.3264L154.658 92.1987L172.017 74.1577L155.724 94.193L152.919 96.3264Z" fill="#D9D9D9"/>
</g>
<path d="M245.998 39.6298C245.998 39.6298 244.005 30.4006 242.799 24.3947C241.594 18.3888 238.79 14.98 238.79 14.98C238.79 14.98 237.191 17.5771 235.383 22.1917C233.575 26.8063 235.383 31.2122 235.383 31.2122L235.174 30.9572C235.383 31.3978 235.591 31.7456 235.777 32.0239C237.191 34.0181 245.998 39.6298 245.998 39.6298Z" fill="#686868"/>
<g style="mix-blend-mode:multiply" opacity="0.3">
<path d="M239.81 35.4326C242.684 37.5196 245.998 39.6298 245.998 39.6298C245.998 39.6298 244.005 30.4006 242.8 24.3947C242.012 20.4526 240.552 17.6467 239.625 16.1626C240.459 22.5859 240.366 29.0093 239.81 35.4094V35.4326Z" fill="#686868"/>
</g>
<path d="M165.876 37.8208L160.452 39.8151L163.651 43.2238L162.446 47.2355L168.263 49.8327L167.869 53.2415L172.481 56.0473L172.69 59.0619L178.507 62.4707L178.901 66.6679L184.904 69.6824L184.301 73.2999L189.308 74.8999L190.513 78.9116L194.708 76.3145C192.506 68.894 180.894 58.2735 175.888 52.8704C170.882 47.4674 165.876 37.844 165.876 37.844V37.8208Z" fill="#686868"/>
<path d="M273.231 48.8359L273.833 43.8271L269.43 39.4212L270.635 36.4066L265.837 32.395L267.228 29.3804L264.424 24.5803C264.424 24.5803 266.417 20.7773 265.814 20.5686C265.212 20.3599 262.801 17.1598 262.801 17.1598L262.593 12.7539L258.583 15.1656C258.583 15.1656 259.788 25.7861 261.99 30.192C264.192 34.5979 274.598 51.4331 273.81 58.4361C273.81 58.5753 273.81 58.6912 273.787 58.8072L279.628 56.2332L273.208 48.8127L273.231 48.8359Z" fill="#686868"/>
<path d="M262.013 30.192C259.812 25.7861 258.606 15.1655 258.606 15.1655L257.401 13.9597L249.197 14.9568H238.79C238.79 14.9568 241.595 18.3656 242.8 24.3716C244.005 30.3775 245.998 39.6067 245.998 39.6067C245.998 39.6067 237.191 33.995 235.777 32.0007C235.592 31.7456 235.383 31.3746 235.175 30.934L225.162 18.5743C225.162 18.5743 217.954 20.7773 214.339 21.9831C210.723 23.1889 195.705 24.186 195.705 24.186L181.891 34.2037L168.472 36.8008L165.899 37.7748C165.899 37.7748 170.905 47.4214 175.912 52.8476C180.918 58.2506 192.529 68.8712 194.731 76.2916L210.352 71.2828L237.794 72.0944L261.225 60.2681L272.837 59.2709L273.81 58.8535C273.81 58.7376 273.81 58.5985 273.834 58.4825C274.645 51.4794 264.215 34.6443 262.013 30.2384V30.192Z" fill="#D9D9D9"/>
<g style="mix-blend-mode:multiply" opacity="0.3">
<path d="M262.013 30.192C259.812 25.7861 258.606 15.1655 258.606 15.1655L257.401 13.9597L249.197 14.9568H238.79C238.79 14.9568 241.595 18.3656 242.8 24.3716C244.005 30.3775 245.998 39.6067 245.998 39.6067C245.998 39.6067 237.191 33.995 235.777 32.0007C235.592 31.7456 235.383 31.3746 235.175 30.934L225.162 18.5743C225.162 18.5743 217.954 20.7773 214.339 21.9831C210.723 23.1889 195.705 24.186 195.705 24.186L181.891 34.2037L168.472 36.8008L165.899 37.7748C165.899 37.7748 170.905 47.4214 175.912 52.8476C180.918 58.2506 192.529 68.8712 194.731 76.2916L210.352 71.2828L237.794 72.0944L261.225 60.2681L272.837 59.2709L273.81 58.8535C273.81 58.7376 273.81 58.5985 273.834 58.4825C274.645 51.4794 264.215 34.6443 262.013 30.2384V30.192ZM265.629 54.9114C265.235 54.7723 256.938 55.0505 254.945 54.3781C252.951 53.7056 243.472 55.4448 243.333 55.839C243.194 56.2332 232.393 58.6448 232.115 58.2506C231.837 57.8564 233.181 53.7056 233.181 53.7056C233.181 53.7056 243.727 48.6272 243.333 48.6272C242.939 48.6272 230.238 51.0389 223.169 51.2939C216.1 51.5722 191.394 43.688 191.394 43.688L202.217 50.1113L223.841 54.5172C223.841 54.5172 223.841 58.784 223.169 59.0622C222.497 59.3405 214.756 65.0682 212.879 64.8131C211.001 64.5348 205.532 66.6914 205.137 66.8073C204.743 66.9465 194.847 72.6742 194.731 72.4191C194.592 72.1408 189.516 62.0072 189.516 62.0072L181.914 49.1837L189.122 35.0153L178.971 44.7778L175.772 45.5895L172.713 39.9777L181.265 36.2443L191.556 29.705L197.837 25.5542L224.537 21.9367C224.537 21.9367 226.414 23.1425 226.53 23.815C226.669 24.4875 230.261 32.766 229.867 32.766C229.473 32.766 242.429 39.0502 242.429 39.0502C242.429 39.0502 248.293 44.5228 248.038 44.1285C247.783 43.7343 246.833 35.9892 246.694 32.2326C246.555 28.4992 242.823 18.5975 242.823 18.5975L249.359 17.7859C249.359 17.7859 249.104 24.2092 249.498 24.2092C249.892 24.2092 257.239 16.1859 257.239 16.1859L256.706 22.1918L261.504 36.4762V44.7546C261.504 44.7546 266.046 55.0505 265.652 54.9114H265.629Z" fill="#5F5F5F"/>
</g>
<g style="mix-blend-mode:screen">
<path d="M217.027 24.6956C211.581 25.0434 206.366 25.6231 200.989 26.4579C196.887 27.1072 193.827 30.887 190.768 33.4146C190.675 33.4842 190.675 33.6697 190.814 33.6001C194.407 32.1856 196.863 28.3826 200.803 27.7797C206.181 26.9449 211.534 25.8782 216.911 25.0666C217.074 25.0434 217.236 24.6492 217.004 24.6724L217.027 24.6956Z" fill="#D9D9D9"/>
</g>
<g style="mix-blend-mode:screen">
<path d="M192.252 57.995C190.931 54.9109 187.222 52.4297 184.858 50.2036C184.812 50.1572 184.742 50.2499 184.766 50.2963C186.226 53.1254 188.01 55.0269 189.934 57.5313C192.275 60.5922 193.735 64.2793 195.01 67.8735C195.056 68.0127 195.288 67.8504 195.265 67.7344C194.453 64.4648 193.596 61.1024 192.275 58.0182L192.252 57.995Z" fill="#D9D9D9"/>
</g>
<g style="mix-blend-mode:screen">
<path d="M243.264 45.0089C242.337 45.8669 240.228 45.8205 239.069 46.0292C237.307 46.377 235.569 46.7944 233.831 47.1191C229.868 47.8379 225.997 48.5568 221.988 48.9046C221.779 48.9046 221.594 49.3452 221.872 49.3684C226.252 49.7394 230.354 49.5771 234.665 48.7191C237.145 48.2321 241.734 47.1886 243.31 45.0321C243.333 45.0089 243.31 44.9857 243.264 45.0089Z" fill="#D9D9D9"/>
</g>
<g style="mix-blend-mode:screen">
<path d="M255.895 19.0607C254.018 21.3564 251.584 23.513 250.75 26.458C250.634 26.8986 251.097 26.9913 251.352 26.7131C253.299 24.5565 254.806 21.7506 255.941 19.0839C255.941 19.0607 255.918 19.0375 255.895 19.0839V19.0607Z" fill="#D9D9D9"/>
</g>
<g style="mix-blend-mode:screen">
<path d="M183.861 63.0968C177.673 55.9546 171.786 49.253 167.104 40.9977C167.104 40.9513 167.012 40.9977 167.035 41.0441C168.82 44.8703 170.581 48.6733 173.177 52.0357C176.306 56.0705 180.199 59.5721 183.722 63.2359C183.792 63.3055 183.908 63.1664 183.838 63.0968H183.861Z" fill="#D9D9D9"/>
</g>
<g style="mix-blend-mode:screen">
<path d="M179.157 62.447C179.157 62.447 179.064 62.447 179.064 62.4702C178.994 63.5601 179.018 64.7195 179.365 65.763C179.435 65.9486 179.667 65.7167 179.643 65.6007C179.597 64.534 179.203 63.5137 179.133 62.447H179.157Z" fill="#D9D9D9"/>
</g>
<path d="M105.592 28.198C105.592 28.198 86.3556 34.8069 81.164 35.0156C75.9492 35.2243 58.9374 44.639 55.5304 46.0303C52.1234 47.4448 0.647682 63.2597 0.0219078 63.4684C-0.58069 63.6771 11.4481 80.6978 11.4481 80.6978L45.8889 86.5182L52.7029 89.7183L62.1127 93.73L65.3111 98.3446L72.5191 99.7591L85.7299 104.977L104.364 113L128.19 97.5794L137.994 76.9412C137.994 76.9412 165.435 65.1148 169.236 60.7089L136.788 47.4912C136.788 47.4912 108.559 28.6618 105.546 28.2444L105.592 28.198Z" fill="#A6A6A6"/>
<g style="mix-blend-mode:multiply">
<path d="M136.835 47.4451C136.835 47.4451 108.605 28.6156 105.592 28.1982C105.592 28.1982 86.3555 34.8071 81.1639 35.0158C75.9491 35.2245 58.9373 44.6392 55.5303 46.0306C53.4444 46.8885 33.4196 53.1264 18.007 57.9033C25.4004 56.7207 32.7243 55.0974 39.9555 53.1959C49.5507 50.6683 59.3313 48.1639 68.5325 44.4305C72.4031 42.8769 76.3431 41.1841 80.4454 40.3724C82.1142 40.0478 86.3787 38.9811 87.6766 40.6739C88.3487 41.5551 90.3883 43.4798 91.7325 43.3174C93.1 43.1551 94.6528 41.1145 95.7421 40.3724C99.7286 37.6593 103.367 34.4129 107.771 32.3491C108.049 32.2099 108.466 32.2563 108.605 32.5578C109.671 34.8999 110.738 37.2187 111.595 39.6536C111.688 39.9087 111.526 40.2101 111.317 40.3493C108.304 42.2044 105.198 43.8508 102.116 45.5668C107.887 43.7117 113.681 40.929 119.707 42.1812C119.962 42.2276 120.147 42.5058 120.147 42.7609C120.124 44.5928 119.545 46.9117 120.008 48.7205C120.565 50.9002 122.604 52.2916 124.528 53.2191C128.375 55.0279 132.593 55.9554 136 58.6453C136.325 58.9004 136.163 59.4106 135.884 59.5961C129.094 64.2571 120.24 64.2571 112.545 66.7615C118.826 71.3297 127.61 72.1645 132.362 78.7965C132.616 79.1676 132.269 79.7241 131.828 79.7009C125.107 79.3299 113.496 75.3878 110.714 82.5763C107.794 90.1128 108.397 97.3245 104.99 107.133C103.159 112.444 89.438 103.122 87.2594 99.0869C86.2628 97.255 85.6834 95.2375 84.7331 93.4056C83.6902 91.365 82.0215 92.9882 80.3527 93.5215C76.4822 94.7505 73.2374 93.0114 69.3205 92.7795C68.8802 92.7563 68.5325 92.2693 68.7875 91.8751C71.0588 88.1649 72.7507 84.13 75.3233 80.6053C76.1577 79.4458 77.0848 78.3096 77.9655 77.1501C73.7473 78.9821 69.645 81.185 65.6123 83.3648C63.7581 84.3619 61.6258 86.1938 59.424 86.2634C57.3381 86.3098 55.3217 85.6373 53.4444 84.7097C48.3687 82.1821 43.4552 79.3067 38.2868 76.9414C38.0086 76.8023 37.8928 76.3617 38.0782 76.1066C39.5151 73.9501 41.4388 72.1877 42.9685 70.1007C40.2568 71.0746 37.5219 72.1413 34.9725 73.4631C32.7938 74.5762 30.6384 75.8747 28.3207 76.6632C26.8606 77.1501 24.821 77.753 23.3377 76.9878C21.5531 76.0834 20.9968 74.1356 20.1856 72.4428C20.0002 72.0486 20.1856 71.7007 20.5565 71.5384C29.9895 67.689 39.492 64.0484 49.203 60.9874C40.025 61.1961 30.8933 62.5179 21.7385 63.0281C16.5701 63.3295 11.3321 63.5614 6.21002 64.3498C4.40222 64.6281 2.61761 64.9064 0.809814 65.0455C3.4288 69.3354 11.4248 80.6749 11.4248 80.6749L45.8656 86.4953L52.6796 89.6954L62.0894 93.707L65.2878 98.3216L72.4958 99.7362L85.7066 104.954L104.341 112.977L128.167 97.5564L137.97 76.9182C137.97 76.9182 165.412 65.0919 169.213 60.686L136.765 47.4683L136.835 47.4451Z" fill="#A6A6A6"/>
</g>
<g style="mix-blend-mode:color-dodge">
<path d="M25.1458 62.0076L76.691 58.5292L52.2627 58.135L25.1458 62.0076Z" fill="#A6A6A6"/>
</g>
<g style="mix-blend-mode:color-dodge">
<path d="M63.0627 83.8984L79.75 74.6924L87.6301 68.4082L78.962 73.8808L56.6659 80.165L42.5048 76.2925L55.7156 84.0376L61.3244 81.765L63.0627 83.8984Z" fill="#A6A6A6"/>
</g>
<g style="mix-blend-mode:color-dodge">
<path d="M106.195 93.5214L109.394 76.292L104.202 70.0078L101.259 62.4019L102.58 70.6803L86.4255 90.9938L100.193 78.4254L105.523 78.0312L106.195 93.5214Z" fill="#A6A6A6"/>
</g>
<g style="mix-blend-mode:color-dodge">
<path d="M99.1262 47.1667L118.757 42.8999L118.618 45.0333L99.1262 47.1667Z" fill="#A6A6A6"/>
</g>
</svg>
